<svg width="693" height="717" viewBox="0 0 693 717" fill="none" xmlns="http://www.w3.org/2000/svg">
<path d="M688.971 247.594C682.052 162.281 678.592 119.624 662.488 92.0265C616.378 13.005 482.319 -5.78946 397.65 1.41776C284.298 11.0639 154.625 76.2258 97.5449 202.037C45.7012 316.309 69.6066 445.658 147.724 530.272C290.925 685.383 586.316 657.689 658.475 555.908C687.272 515.289 689.348 450.41 692.399 355.106C693.865 309.23 691.004 272.671 688.971 247.594Z" fill="#F4F7FA"/>
<path d="M586.653 54.1946C579.325 48.1315 568.208 44.8294 558.811 44.1625C492.199 39.4422 482.477 178.679 492.688 209.796C502.898 240.913 496.282 251.131 443.82 267.411C391.357 283.691 416.525 315.036 422.92 333.367C429.314 351.698 441.977 367.184 403.732 385.398C365.488 403.613 378.779 414.899 378.779 414.899C378.779 414.899 449.307 487.042 445.411 463.945C441.515 440.848 448.574 405.972 511.809 403.32C539.046 402.179 580.755 389.187 589.99 360.022C592.141 353.231 593.637 342.858 592.002 335.829C589.732 326.078 583.333 318.396 579.779 309.218C571.499 287.831 592.269 272.17 604.221 257.874C610.463 250.411 616.699 242.759 621.477 234.25C631.399 216.583 627.684 197.638 616.88 181.353C611.698 173.545 604.5 165.26 602.239 155.945C599.812 145.941 601.929 132.271 602.504 121.978C602.956 113.905 603.726 105.865 603.271 97.7714C602.431 82.7221 598.905 64.3318 586.653 54.1946Z" fill="#6358DC"/>
<g opacity="0.8">
<g opacity="0.8">
<path opacity="0.8" d="M373.233 455.39C372.776 455.555 372.258 455.361 372.027 454.92C371.776 454.438 371.961 453.842 372.443 453.591C372.74 453.435 402.432 437.818 435.554 412.094C466.075 388.392 505.836 351.02 521.933 307.574C535.379 271.289 547.64 211.301 555.576 142.997C562.692 81.7472 563.816 36.4485 560.792 28.0401C560.607 27.5285 560.874 26.9645 561.386 26.7795C561.897 26.5945 562.461 26.8617 562.646 27.3732C566.184 37.2112 563.939 88.098 557.536 143.226C549.584 211.68 537.282 271.832 523.783 308.259C507.519 352.151 467.47 389.81 436.737 413.672C403.478 439.496 373.655 455.18 373.359 455.335C373.315 455.356 373.274 455.374 373.233 455.39Z" fill="#6358DC"/>
</g>
<g opacity="0.8">
<path opacity="0.8" d="M555.468 154.87C554.959 155.053 554.441 154.911 554.253 154.402C554.007 153.728 529.174 86.9201 497.153 71.8365C496.659 71.6059 496.461 71.0486 496.691 70.5554C496.924 70.0621 497.516 69.868 498.007 70.0986C530.761 85.527 555.078 150.933 556.099 153.717C556.286 154.229 555.984 154.685 555.473 154.868C555.471 154.87 555.468 154.87 555.468 154.87Z" fill="#6358DC"/>
</g>
<g opacity="0.8">
<path opacity="0.8" d="M543.357 232.347C542.978 232.484 542.535 232.377 542.263 232.046C541.918 231.625 541.978 231.004 542.398 230.659C542.581 230.509 560.864 215.512 583.422 202.927C613.902 185.923 637.261 181.175 652.849 188.818C653.338 189.058 653.539 189.647 653.299 190.136C653.059 190.625 652.47 190.826 651.982 190.586C616.114 173.002 544.369 231.584 543.649 232.178C543.56 232.253 543.46 232.311 543.357 232.347Z" fill="#6358DC"/>
</g>
<g opacity="0.8">
<path opacity="0.8" d="M463.76 390.713C463.659 390.749 463.554 390.768 463.442 390.77C462.899 390.779 462.451 390.345 462.442 389.799C462.438 389.514 461.931 360.85 455.931 330.646C450.43 302.954 439.071 268.268 416.198 260.275C415.684 260.095 415.412 259.533 415.593 259.021C415.771 258.507 416.335 258.236 416.847 258.416C435.92 265.08 449.72 289.261 457.868 330.29C463.899 360.665 464.406 389.482 464.411 389.77C464.42 390.204 464.146 390.574 463.76 390.713Z" fill="#6358DC"/>
</g>
<g opacity="0.8">
<path opacity="0.8" d="M504.463 344.402C504.063 344.546 503.602 344.418 503.337 344.059C503.013 343.621 503.106 343.004 503.542 342.682C506.714 340.337 581.536 285.331 610.715 290.583C611.251 290.679 611.605 291.193 611.509 291.727C611.413 292.264 610.902 292.62 610.365 292.522C582.014 287.418 505.484 343.696 504.714 344.265C504.636 344.327 504.55 344.37 504.463 344.402Z" fill="#6358DC"/>
</g>
</g>
<path d="M645.117 259.275C640.273 251.091 630.929 244.221 622.312 240.414C561.225 213.433 504.964 341.167 504.042 373.903C503.119 406.64 493.436 414.016 438.562 411.584C383.686 409.152 396.762 447.166 396.577 466.579C396.392 485.992 403.067 504.848 360.916 509.048C318.764 513.248 327.451 528.363 327.451 528.363C327.451 528.363 369.409 620.116 373.558 597.063C377.707 574.009 396.15 543.579 456.551 562.483C482.566 570.625 526.211 572.513 544.771 548.195C549.094 542.531 554.01 533.278 554.849 526.109C556.011 516.166 552.59 506.771 552.35 496.933C551.793 474.005 576.639 466.296 592.723 456.889C601.12 451.979 609.579 446.887 616.955 440.497C632.269 427.231 635.185 408.147 630.529 389.167C628.296 380.067 624.324 369.834 625.35 360.304C626.45 350.069 633.068 337.92 637.092 328.429C640.248 320.987 643.694 313.679 646.005 305.91C650.31 291.457 653.217 272.959 645.117 259.275Z" fill="url(#paint0_linear_90_115)"/>
<g opacity="0.8">
<g opacity="0.8">
<path opacity="0.8" d="M308.53 564.586C308.046 564.586 307.623 564.228 307.555 563.734C307.482 563.195 307.859 562.698 308.398 562.624C308.729 562.579 341.954 557.929 381.826 544.931C418.566 532.955 468.628 511.24 498.478 475.804C523.409 446.208 555.245 393.91 585.823 332.32C613.243 277.092 629.628 234.844 629.628 225.908C629.628 225.365 630.069 224.924 630.613 224.924C631.156 224.924 631.597 225.365 631.597 225.908C631.597 236.363 612.266 283.488 587.586 333.197C556.94 394.922 525.01 447.364 499.983 477.074C469.827 512.873 419.397 534.759 382.402 546.815C342.367 559.861 308.996 564.529 308.663 564.575C308.621 564.584 308.576 564.586 308.53 564.586Z" fill="white"/>
</g>
<g opacity="0.8">
<path opacity="0.8" d="M581.706 343.661C581.165 343.661 580.724 343.25 580.722 342.709C580.718 341.991 579.957 270.671 554.928 245.642C554.542 245.258 554.542 244.639 554.928 244.255C555.312 243.872 555.935 243.874 556.321 244.258C581.923 269.86 582.672 339.731 582.693 342.695C582.697 343.238 582.259 343.661 581.713 343.661C581.709 343.661 581.706 343.661 581.706 343.661Z" fill="white"/>
</g>
<g opacity="0.8">
<path opacity="0.8" d="M544.094 412.268C543.69 412.268 543.311 412.017 543.167 411.615C542.984 411.104 543.249 410.54 543.763 410.355C543.985 410.275 566.264 402.348 591.752 398.139C626.187 392.451 649.775 395.89 661.86 408.356C662.239 408.747 662.228 409.37 661.837 409.749C661.447 410.129 660.824 410.117 660.444 409.727C632.643 381.044 545.307 411.894 544.428 412.209C544.316 412.25 544.204 412.268 544.094 412.268Z" fill="white"/>
</g>
<g opacity="0.8">
<path opacity="0.8" d="M415.605 534.358C415.5 534.358 415.393 534.34 415.285 534.305C414.771 534.129 414.495 533.57 414.673 533.054C414.765 532.782 423.988 505.639 428.562 475.186C432.755 447.266 433.803 410.782 414.984 395.521C414.561 395.178 414.497 394.557 414.84 394.134C415.183 393.712 415.804 393.646 416.226 393.99C431.919 406.715 436.724 434.142 430.506 475.503C425.904 506.127 416.63 533.417 416.537 533.691C416.397 534.1 416.014 534.358 415.605 534.358Z" fill="white"/>
</g>
<g opacity="0.8">
<path opacity="0.8" d="M469.574 504.551C469.149 504.551 468.759 504.275 468.631 503.85C468.474 503.33 468.77 502.779 469.291 502.624C473.068 501.491 562.09 475.047 587.77 489.863C588.24 490.135 588.402 490.738 588.13 491.208C587.859 491.678 587.256 491.841 586.785 491.569C561.832 477.173 470.773 504.236 469.857 504.51C469.764 504.538 469.668 504.551 469.574 504.551Z" fill="white"/>
</g>
</g>
<path d="M440.345 29.166L439.641 34.2038C437.305 34.3111 435.008 34.6125 432.772 35.115L430.868 30.4152C430.349 29.134 428.881 28.5243 427.591 29.0564L419.513 32.3837C418.221 32.9158 417.59 34.391 418.107 35.6745L420.02 40.4336C418.063 41.6805 416.213 43.0918 414.492 44.6538L410.436 41.5069C409.34 40.6574 407.75 40.8675 406.885 41.9773L401.459 48.9197C400.589 50.0318 400.774 51.6258 401.87 52.4776L405.942 55.6428C404.857 57.6798 403.946 59.831 403.21 62.0758L398.042 61.3976C396.654 61.2149 395.361 62.1991 395.156 63.5967L393.856 72.3523C393.649 73.7545 394.608 75.0424 395.998 75.2251L401.182 75.9057C401.244 78.2693 401.502 80.594 401.961 82.8571L397.097 84.885C395.786 85.4308 395.142 86.9403 395.658 88.2534L398.899 96.4883C399.417 97.8082 400.904 98.4317 402.219 97.8813L407.086 95.8443C408.31 97.8356 409.705 99.7128 411.253 101.458L408.011 105.669C407.134 106.808 407.321 108.439 408.431 109.311L415.382 114.764C416.494 115.637 418.109 115.418 418.984 114.273L422.187 110.09C424.234 111.179 426.399 112.086 428.657 112.81L427.929 118.03C427.73 119.46 428.705 120.768 430.107 120.951L438.883 122.102C440.288 122.287 441.583 121.275 441.779 119.846L442.487 114.664C444.873 114.561 447.219 114.253 449.5 113.739L451.425 118.526C451.96 119.855 453.455 120.483 454.766 119.928L462.951 116.459C464.259 115.904 464.883 114.381 464.346 113.056L462.421 108.304C464.419 107.014 466.301 105.55 468.046 103.931L472.047 107.041C473.166 107.911 474.769 107.692 475.627 106.552L480.987 99.4456C481.844 98.3106 481.631 96.6915 480.514 95.826L476.55 92.7522C477.63 90.6581 478.528 88.4452 479.24 86.141L484.196 86.7919C485.586 86.9746 486.861 85.9812 487.041 84.5744L488.167 75.7961C488.347 74.3962 487.368 73.1127 485.979 72.9301L481.037 72.2815C480.935 69.8882 480.633 67.5406 480.126 65.2593L484.709 63.341C485.997 62.802 486.607 61.3131 486.073 60.016L482.725 51.9227C482.191 50.6301 480.715 50.0181 479.427 50.5548L474.817 52.4776C473.561 50.5068 472.14 48.6479 470.562 46.9283L473.609 42.9525C474.456 41.8449 474.248 40.2623 473.147 39.4151L466.262 34.1238C465.161 33.2789 463.583 33.4867 462.734 34.5897L459.669 38.5701C457.637 37.5151 455.49 36.6382 453.25 35.9439L453.933 30.945C454.12 29.5702 453.158 28.3074 451.781 28.1269L443.179 26.9988C441.809 26.823 440.537 27.789 440.345 29.166ZM410.016 69.9727C412.503 52.6717 428.381 40.5432 445.497 42.788C462.613 45.0329 474.634 60.8221 472.334 78.1459C470.021 95.5771 454.108 107.943 436.805 105.675C419.502 103.405 407.515 87.3788 410.016 69.9727Z" fill="#D8DEE8"/>
<path d="M308.436 26.4344L307.349 34.224C303.738 34.3884 300.185 34.8543 296.727 35.6307L293.784 28.3641C292.98 26.3819 290.712 25.441 288.719 26.2632L276.229 31.4082C274.231 32.2326 273.256 34.5094 274.055 36.4985L277.015 43.8565C273.989 45.7839 271.128 47.9648 268.467 50.3832L262.187 45.5167C260.495 44.2036 258.035 44.5301 256.697 46.2429L248.307 56.9761C246.962 58.6957 247.247 61.1597 248.942 62.4774L255.238 67.3736C253.562 70.5228 252.15 73.85 251.013 77.3189L243.023 76.2707C240.878 75.9898 238.88 77.5107 238.558 79.6711L236.551 93.2109C236.229 95.3804 237.713 97.3694 239.864 97.6503L247.878 98.7008C247.974 102.355 248.371 105.951 249.083 109.45L241.563 112.585C239.535 113.43 238.54 115.762 239.339 117.794L244.349 130.526C245.151 132.565 247.451 133.531 249.483 132.679L257.008 129.53C258.899 132.609 261.057 135.511 263.452 138.208L258.44 144.719C257.083 146.482 257.373 149.003 259.09 150.35L269.84 158.782C271.559 160.131 274.055 159.791 275.409 158.023L280.363 151.556C283.526 153.241 286.876 154.644 290.367 155.763L289.239 163.835C288.931 166.046 290.438 168.069 292.61 168.352L306.179 170.131C308.349 170.417 310.354 168.853 310.655 166.642L311.752 158.631C315.442 158.473 319.068 157.996 322.594 157.201L325.57 164.603C326.397 166.658 328.71 167.628 330.736 166.77L343.392 161.408C345.413 160.551 346.379 158.195 345.547 156.144L342.57 148.795C345.659 146.802 348.569 144.536 351.268 142.033L357.452 146.843C359.181 148.188 361.659 147.847 362.988 146.089L371.275 135.102C372.597 133.348 372.271 130.843 370.544 129.505L364.415 124.755C366.087 121.515 367.473 118.094 368.574 114.533L376.238 115.538C378.389 115.821 380.36 114.284 380.638 112.11L382.378 98.5364C382.657 96.3692 381.141 94.387 378.996 94.1061L371.355 93.1036C371.198 89.404 370.732 85.773 369.946 82.2471L377.035 79.2806C379.028 78.447 379.971 76.1451 379.14 74.1401L373.963 61.6256C373.136 59.6274 370.855 58.682 368.866 59.5109L361.739 62.482C359.798 59.4333 357.598 56.5605 355.162 53.9046L359.871 47.7569C361.181 46.0465 360.862 43.5984 359.156 42.2876L348.509 34.1075C346.808 32.8013 344.367 33.1233 343.054 34.8292L338.313 40.9836C335.168 39.3531 331.85 37.9966 328.388 36.921L329.445 29.1908C329.735 27.0647 328.246 25.1145 326.12 24.8359L312.818 23.0911C310.697 22.8125 308.733 24.3083 308.436 26.4344ZM261.541 89.5296C265.384 62.7789 289.936 44.0254 316.399 47.4966C342.862 50.9678 361.449 75.3801 357.895 102.167C354.319 129.117 329.717 148.24 302.964 144.73C276.209 141.223 257.672 116.44 261.541 89.5296Z" fill="#D8DEE8"/>
<path d="M295.709 101.864L237.531 585.437C236.658 592.688 241.655 599.187 248.657 599.882L490.98 626.486C505.824 627.409 513.951 619.825 514.869 612.115L575.951 97.9951C576.862 90.3288 569.579 83.3842 554.671 83.3842L310.144 88.5339C303.062 88.6549 296.577 94.6518 295.709 101.864Z" fill="url(#paint1_linear_90_115)"/>
<path d="M284.802 101.033L226.304 587.025C225.427 594.312 230.442 600.846 237.466 601.544L488.687 626.557C496.563 627.341 503.782 621.643 504.702 613.894L566.126 97.1184C567.042 89.4111 561.257 83.2178 553.294 83.3525L299.287 87.639C292.185 87.7554 285.674 93.7843 284.802 101.033Z" fill="url(#paint2_linear_90_115)"/>
<path d="M289.57 127.838L235.349 578.449C234.529 585.257 239.226 591.35 245.801 591.989L482.066 614.956C489.388 615.669 496.097 610.35 496.956 603.136L553.72 125.755C554.575 118.58 549.203 112.773 541.807 112.853L303.116 115.394C296.473 115.463 290.385 121.065 289.57 127.838Z" fill="#D8DEE8"/>
<path d="M416.267 100.697C415.957 103.284 417.813 105.355 420.417 105.321C423.022 105.289 425.388 103.161 425.699 100.569C426.009 97.9769 424.146 95.9056 421.54 95.9444C418.935 95.9832 416.576 98.1116 416.267 100.697Z" fill="url(#paint3_linear_90_115)"/>
<path d="M330.417 430.318C378.785 340.892 451.042 314.123 472.797 221.959C484.555 172.141 476.544 124.458 463.05 84.8734L553.298 83.3502C561.261 83.2155 567.045 89.4111 566.13 97.1161L504.706 613.892C503.786 621.643 496.567 627.341 488.691 626.555L291.207 606.893C289.743 526.764 308.855 470.179 330.417 430.318Z" fill="white"/>
<path d="M13 170.817C13 123.298 54.4507 84.7844 104.193 84.789C152.465 84.7936 190.561 121.282 190.561 166.286C190.561 211.29 152.465 249.722 104.193 252.19C54.4484 254.734 13 218.335 13 170.817Z" fill="url(#paint4_linear_90_115)"/>
<path d="M18.3623 167.028C18.3623 119.509 58.6141 80.9954 106.916 81C153.79 81.0046 190.785 117.493 190.785 162.497C190.785 207.501 153.79 245.933 106.916 248.401C58.6118 250.945 18.3623 214.544 18.3623 167.028Z" fill="url(#paint5_linear_90_115)"/>
<g opacity="0.5">
<path opacity="0.5" d="M32.1416 166.665C32.1416 126.742 65.958 94.3821 106.541 94.389C145.923 94.3935 177.005 125.049 177.005 162.86C177.005 200.67 145.925 232.959 106.541 235.033C65.958 237.17 32.1416 206.587 32.1416 166.665Z" fill="white"/>
</g>
<path opacity="0.5" d="M103.748 100.523C143.13 100.527 174.213 131.183 174.213 168.994C174.213 177.985 172.439 186.656 169.23 194.69C174.199 185.016 177.008 174.189 177.008 162.86C177.008 125.049 145.928 94.3935 106.544 94.389C75.2438 94.3867 47.986 113.643 37.1455 140.763C49.4202 116.92 74.8647 100.521 103.748 100.523Z" fill="white"/>
<path d="M72.8926 156.893V191.737C72.8926 201.81 81.3672 209.758 91.7899 209.486L117.634 208.812C127.931 208.543 136.253 200.246 136.253 190.278V155.802L72.8926 156.893ZM96.6929 192.916L101.495 178.362C99.4378 177.3 98.0448 175.208 98.0448 172.771C98.0448 169.195 101.046 166.238 104.74 166.169C108.431 166.099 111.42 168.935 111.42 172.504C111.42 174.936 110.032 177.081 107.981 178.227L112.765 192.541L96.6929 192.916Z" fill="white"/>
<path d="M128.906 152.78C126.163 152.826 123.939 150.704 123.939 148.039C123.939 137.797 115.341 129.576 104.738 129.713C94.0985 129.85 85.4137 138.347 85.4137 148.654C85.4137 151.335 83.1598 153.545 80.376 153.593C77.5899 153.639 75.3291 151.501 75.3291 148.816C75.3291 133.129 88.5583 120.218 104.74 120.037C120.836 119.857 133.864 132.348 133.864 147.884C133.864 150.542 131.646 152.735 128.906 152.78Z" fill="white"/>
<path d="M182.233 412.989C182.233 412.989 180.474 406.398 181.721 404.713C182.966 403.028 190.582 396.291 189.851 398.488C189.118 400.685 188.02 402.149 188.02 402.149C188.02 402.149 192.121 404.053 189.483 406.908C186.848 409.765 185.967 410.422 185.82 412.987C185.677 415.551 183.991 416.431 182.233 412.989Z" fill="url(#paint6_linear_90_115)"/>
<path d="M109.075 697.48C109.075 697.48 108.144 703.18 108.262 705.208C108.381 707.236 130.893 708.273 131.12 706.754C131.346 705.236 127.399 702.817 124.62 701.965C121.841 701.111 113.707 698.837 113.707 698.837L109.075 697.48Z" fill="url(#paint7_linear_90_115)"/>
<path d="M114.539 691.799L113.822 698.887C113.822 698.887 111.207 700.616 108.903 699.282L107.75 691.568L114.539 691.799Z" fill="url(#paint8_linear_90_115)"/>
<path d="M68.9084 706.72C68.9084 706.72 67.9767 712.42 68.0954 714.448C68.2142 716.476 90.7265 717.513 90.9526 715.994C91.1809 714.476 87.2325 712.057 84.4533 711.205C81.6741 710.354 73.5397 708.077 73.5397 708.077L68.9084 706.72Z" fill="url(#paint9_linear_90_115)"/>
<path d="M74.3743 701.038L73.6572 708.127C73.6572 708.127 71.0424 709.855 68.7382 708.522L67.585 700.808L74.3743 701.038Z" fill="url(#paint10_linear_90_115)"/>
<path d="M110.455 506.763C113.056 512.038 115.659 517.313 118.26 522.589C120.352 552.694 121.394 585.433 120.725 620.443C120.227 646.491 118.836 671.166 116.835 694.327C113.307 694.165 109.779 694.002 106.251 693.84C101.149 683.715 95.127 668.375 94.5721 649.439C93.9943 629.688 99.982 627.064 99.603 608.153C99.1097 583.64 88.8309 577.1 83.3547 547.615C81.2606 536.339 79.8516 521.611 81.5255 503.744C91.1694 504.751 100.811 505.758 110.455 506.763Z" fill="url(#paint11_linear_90_115)"/>
<path opacity="0.3" d="M81.5275 503.744C86.7342 504.287 91.941 504.831 97.15 505.374C106.524 521.687 109.142 538.663 107.495 546.174C105.168 556.8 99.0112 560.203 99.3515 570.87C99.6872 581.425 105.906 584.163 109.849 596.602C112.581 605.216 111.859 613.136 110.306 628.624C107.178 659.821 99.6438 669.362 105.954 679.59C107.746 682.497 110.978 685.957 117.308 688.599C117.153 690.513 117 692.431 116.837 694.324C113.309 694.165 109.781 694 106.253 693.84C101.151 683.715 95.129 668.375 94.574 649.439C93.9963 629.688 99.984 627.064 99.605 608.153C99.1117 583.64 88.8329 577.102 83.3567 547.618C81.2626 536.341 79.8513 521.614 81.5275 503.744Z" fill="url(#paint12_linear_90_115)"/>
<path d="M96.4537 516.261C91.5689 542.897 87.2551 571.404 83.889 601.637C79.8241 638.142 77.6546 672.556 76.8028 704.507C72.9297 704.617 69.0589 704.726 65.1858 704.836C49.9264 674.648 48.9947 654.182 51.1938 640.857C52.0411 635.723 54.3453 625.655 54.8705 610.605C55.2359 600.117 54.5668 592.133 53.731 582.537C51.8995 561.498 49.6752 556.905 49.3555 540.812C49.054 525.708 48.9924 518.067 53.3039 513.607C64.6629 501.853 94.2134 515.219 96.4537 516.261Z" fill="url(#paint13_linear_90_115)"/>
<path d="M180.208 411.973C182.784 411.793 185.357 411.615 187.933 411.434C194.008 435.986 189.65 459.8 175.939 468.558C154.516 482.241 114.701 456.461 106.073 428.388C102.287 416.065 103.148 398.285 110.718 394.83C112.819 393.871 116.08 393.722 123.143 397.687C144.238 409.53 144.793 431.914 155.517 433.809C160.28 434.654 167.981 431.615 180.208 411.973Z" fill="url(#paint14_linear_90_115)"/>
<path d="M121.225 527.99C124.936 521.833 120.275 515.895 119.215 504.233C118.014 491.013 123.106 488.811 128.142 466.904C131.492 452.334 134.705 438.347 130.868 421.973C129.03 414.126 125.911 400.817 114.894 394.389C109.21 391.07 101.448 391.404 86.159 392.203C67.2503 393.192 57.7983 393.685 50.7463 397.399C49.7141 397.942 28.266 409.609 26.7885 428.628C25.2858 447.984 46.364 450.585 49.1752 476.397C50.438 487.984 48.1886 505.806 46.7294 517.364C45.3295 528.462 44.3635 531.303 46.5558 534.665C51.8357 542.765 67.9971 540.456 100.32 535.841C112.999 534.028 118.455 532.584 121.225 527.99Z" fill="url(#paint15_linear_90_115)"/>
<path d="M72.0427 472.243C70.6748 477.274 65.7603 481.031 62.3394 493.269C61.6018 495.911 56.338 514.726 63.1638 519.357C67.1054 522.032 70.6451 516.964 80.2136 516.302C96.793 515.155 104.692 529.09 115.524 525.284C117.403 524.621 119.883 523.215 122.361 519.981C122.854 522.895 122.77 525.427 121.226 527.992C118.458 532.587 113 534.03 100.321 535.841C67.9983 540.456 51.8369 542.765 46.557 534.665C44.367 531.306 45.3307 528.462 46.7306 517.364C48.1898 505.804 50.4393 487.982 49.1764 476.397C46.3652 450.585 25.2848 447.984 26.7897 428.628C27.1916 423.453 29.0939 418.847 31.6402 414.834C58.3795 425.654 76.3382 456.433 72.0427 472.243Z" fill="url(#paint16_linear_90_115)"/>
<path d="M38.2715 510.316L43.6221 513.732C44.5835 512.623 46.8078 510.385 50.279 509.622C54.1909 508.761 58.6828 509.996 58.7856 511.243C58.8701 512.244 56.1343 513.253 55.7118 513.408C52.2977 514.669 49.7651 513.621 48.3858 514.993C47.8971 515.477 47.2896 516.382 45.8898 517.217C45.5221 517.437 45.1384 517.631 44.9352 517.711C42.6561 518.597 38.7488 514.63 38.4131 514.283L38.2715 510.316Z" fill="url(#paint17_linear_90_115)"/>
<path d="M54.0763 440.148C57.9472 430.879 60.6282 416.686 54.5148 395.61C14.2356 411.482 -6.30588 449.107 1.71433 478.932C8.32552 503.52 32.3816 515.495 37.7482 518.017C38.9973 515.173 40.2465 512.333 41.4934 509.492C35.275 502.568 28.2664 492.328 29.2575 480.642C30.6323 464.442 46.2411 458.913 54.0763 440.148Z" fill="url(#paint18_linear_90_115)"/>
<path d="M85.1674 373.134C85.1674 373.134 84.8499 380.179 82.6622 385.457C80.6845 390.225 70.2893 393.224 68.1815 394.288C66.0737 395.352 72.13 398.465 78.2114 399.074C84.2927 399.686 101.658 398.305 104.789 396.001C107.919 393.696 102.272 393.87 97.933 392.276C93.5918 390.682 91.082 382.194 91.8494 378.341C92.6167 374.486 85.1674 373.134 85.1674 373.134Z" fill="url(#paint19_linear_90_115)"/>
<path d="M94.7861 370.579C97.9421 367.478 98.3829 367.117 98.7254 366.046C100.105 361.746 96.7683 355.854 92.3928 354.404C92.1645 354.329 89.23 353.39 88.111 354.662C87.1587 355.742 88.5586 357.236 87.894 359.321C87.2706 361.271 85.5807 361.417 82.4452 363.975C79.8624 366.08 78.2593 367.391 77.8893 369.234C77.1266 373.032 81.7236 378.535 85.7931 378.387C87.2569 378.332 87.6565 377.585 94.7861 370.579Z" fill="url(#paint20_linear_90_115)"/>
<path d="M86.1933 378.974C86.1933 378.974 89.5481 382.772 94.6566 381.516C99.2308 380.392 98.0638 369.892 94.716 368.215C93.5993 367.656 91.5691 367.702 90.0436 368.437C89.1416 368.871 88.8904 369.323 87.4037 370.004C86.0335 370.632 85.5973 370.545 85.2296 370.988C84.7683 371.54 84.5697 372.733 86.0152 375.605C84.9739 374.868 83.8526 374.713 83.1652 375.201C83.0556 375.279 82.777 375.553 82.656 375.911C82.2198 377.211 83.5717 378.533 86.1933 378.974Z" fill="url(#paint21_linear_90_115)"/>
<path d="M508.589 156.836L509.77 163.209L485.465 163.266L274.546 163.767C269.12 163.78 264.13 168.265 263.386 173.785L213.036 510.289C212.287 515.859 220.955 524.361 226.349 524.776L319.922 531.968V531.854L459.892 542.591C459.895 542.591 459.897 542.591 459.899 542.591L460.237 542.733C466.214 543.194 471.697 538.858 472.473 532.975C472.473 532.973 472.473 533 472.475 532.998L519.628 173.721C520.396 167.893 514.6 156.82 508.589 156.836Z" fill="url(#paint22_linear_90_115)"/>
<path d="M467.704 525.974C466.932 531.859 461.452 536.257 455.475 535.798L221.345 517.821C215.954 517.408 212.202 512.557 212.951 506.987L258.722 166.905C259.464 161.385 264.454 156.9 269.875 156.884L505.327 156.236C511.336 156.22 515.597 160.931 514.834 166.759L467.704 525.974Z" fill="url(#paint23_linear_90_115)"/>
<path d="M470.814 338.948C470.431 341.862 467.709 344.036 464.735 343.926L258.674 336.406C255.954 336.308 254.04 334.067 254.415 331.284L258.466 301.256C258.841 298.474 261.323 296.593 264.045 296.668L470.287 302.395C473.265 302.478 475.373 304.581 474.991 307.492L470.814 338.948Z" fill="white"/>
<path d="M462.836 399.96C462.452 402.881 459.728 405.373 456.755 405.224L250.849 395.053C248.131 394.918 246.24 392.317 246.615 389.531L250.698 358.923C251.072 356.139 253.578 353.753 256.297 353.863L462.329 362.173C465.302 362.294 467.406 364.984 467.022 367.9L462.836 399.96Z" fill="white"/>
<path opacity="0.1" d="M475.008 307.372C474.519 307.214 473.994 307.127 473.434 307.111L267.188 301.386C264.468 301.309 261.984 303.195 261.614 305.969L257.556 335.997C257.546 336.075 257.54 336.148 257.533 336.226C255.441 335.637 254.096 333.654 254.411 331.279L258.469 301.251C258.839 298.477 261.324 296.588 264.043 296.668L470.29 302.393C473.215 302.48 475.314 304.517 475.008 307.372Z" fill="url(#paint24_linear_90_115)"/>
<path opacity="0.1" d="M467.066 367.224C466.571 367.028 466.036 366.909 465.47 366.886L259.443 358.573C256.723 358.464 254.213 360.855 253.843 363.639L249.753 394.249C249.73 394.445 249.714 394.635 249.714 394.831C247.623 394.155 246.293 391.906 246.609 389.531L250.699 358.921C251.069 356.137 253.576 353.746 256.298 353.855L462.325 362.168C465.077 362.287 467.073 364.582 467.066 367.224Z" fill="url(#paint25_linear_90_115)"/>
<path d="M408.074 449.414C408.682 444.807 405.425 440.564 400.796 440.297L294.206 434.177C289.792 433.923 285.716 437.641 285.115 442.126L280.717 475.281C280.116 479.773 283.179 484.07 287.591 484.372L394.126 491.661C398.752 491.979 403.014 488.071 403.623 483.458L408.074 449.414Z" fill="url(#paint26_linear_90_115)"/>
<path d="M416.124 226.042C414.72 236.64 409.275 246.206 401.534 253.242C393.192 260.831 382.203 265.448 370.775 265.227C359.405 265.008 349.834 260.041 343.689 252.283C338.021 245.133 335.244 235.606 336.635 225.185C339.528 203.506 359.446 185.982 381.303 186.034C403.368 186.082 419.043 203.993 416.124 226.042Z" fill="url(#paint27_linear_90_115)"/>
<path d="M394.869 213.995C393.609 223.491 384.844 231.1 375.328 230.986C365.851 230.872 359.215 223.137 360.468 213.71C361.724 204.285 370.4 196.683 379.882 196.726C389.405 196.77 396.13 204.5 394.869 213.995Z" fill="white"/>
<path d="M401.535 253.243C393.193 260.831 382.204 265.449 370.777 265.227C359.407 265.008 349.836 260.041 343.69 252.283C350.724 242.484 362.325 235.967 374.645 236.127C387.032 236.286 397.016 243.151 401.535 253.243Z" fill="white"/>
<path opacity="0.4" d="M514.833 166.758L467.705 525.973C466.933 531.855 461.103 536.229 455.129 535.77L314.508 524.972C307.828 518.133 302.327 509.925 298.401 500.076C296.474 495.246 295.063 490.035 294.124 484.554C291.514 469.386 292.525 452.144 296.332 435.22C299.26 422.192 303.85 409.33 309.726 397.725C314.426 388.446 319.952 379.962 326.125 372.833C330.569 367.701 335.376 362.716 340.446 357.827C346.559 351.926 353.056 346.166 359.759 340.46C375.377 327.153 392.1 314.143 407.583 300.404C443.309 268.712 472.293 233.299 465.318 182.771C465.095 181.179 462.918 168.991 460.137 156.358L504.979 156.235C510.985 156.219 515.598 160.932 514.833 166.758Z" fill="white"/>
<defs>
<linearGradient id="paint0_linear_90_115" x1="326.712" y1="418.739" x2="650.243" y2="418.739" gradientUnits="userSpaceOnUse">
<stop stop-color="#F23C6F"/>
<stop offset="1" stop-color="#FB5A87"/>
</linearGradient>
<linearGradient id="paint1_linear_90_115" x1="409.738" y1="342.467" x2="505.236" y2="352.885" gradientUnits="userSpaceOnUse">
<stop stop-color="#444B8C"/>
<stop offset="0.9964" stop-color="#26264F"/>
</linearGradient>
<linearGradient id="paint2_linear_90_115" x1="325.595" y1="101.746" x2="561.734" y2="905.662" gradientUnits="userSpaceOnUse">
<stop stop-color="#444B8C"/>
<stop offset="0.9964" stop-color="#26264F"/>
</linearGradient>
<linearGradient id="paint3_linear_90_115" x1="414.082" y1="81.9443" x2="691.609" y2="833.581" gradientUnits="userSpaceOnUse">
<stop stop-color="#FFC444"/>
<stop offset="0.9964" stop-color="#F36F56"/>
</linearGradient>
<linearGradient id="paint4_linear_90_115" x1="-2043.89" y1="2191.78" x2="-1854.06" y2="2012.77" gradientUnits="userSpaceOnUse">
<stop stop-color="#311944"/>
<stop offset="1" stop-color="#893976"/>
</linearGradient>
<linearGradient id="paint5_linear_90_115" x1="46.8791" y1="217.06" x2="198.996" y2="79.018" gradientUnits="userSpaceOnUse">
<stop stop-color="#FB5986"/>
<stop offset="1" stop-color="#FB6FBB"/>
</linearGradient>
<linearGradient id="paint6_linear_90_115" x1="194.468" y1="398.562" x2="164.324" y2="429.244" gradientUnits="userSpaceOnUse">
<stop stop-color="#FFC444"/>
<stop offset="0.9964" stop-color="#F36F56"/>
</linearGradient>
<linearGradient id="paint7_linear_90_115" x1="119.749" y1="690.01" x2="120.003" y2="621.942" gradientUnits="userSpaceOnUse">
<stop stop-color="#AA80F9"/>
<stop offset="0.9964" stop-color="#6165D7"/>
</linearGradient>
<linearGradient id="paint8_linear_90_115" x1="113.007" y1="711.884" x2="109.766" y2="676.71" gradientUnits="userSpaceOnUse">
<stop stop-color="#FFC444"/>
<stop offset="0.9964" stop-color="#F36F56"/>
</linearGradient>
<linearGradient id="paint9_linear_90_115" x1="79.6184" y1="689.86" x2="79.8724" y2="621.792" gradientUnits="userSpaceOnUse">
<stop stop-color="#AA80F9"/>
<stop offset="0.9964" stop-color="#6165D7"/>
</linearGradient>
<linearGradient id="paint10_linear_90_115" x1="72.3351" y1="715.63" x2="69.0939" y2="680.457" gradientUnits="userSpaceOnUse">
<stop stop-color="#FFC444"/>
<stop offset="0.9964" stop-color="#F36F56"/>
</linearGradient>
<linearGradient id="paint11_linear_90_115" x1="111.775" y1="534.655" x2="86.8256" y2="662.211" gradientUnits="userSpaceOnUse">
<stop stop-color="#311944"/>
<stop offset="1" stop-color="#893976"/>
</linearGradient>
<linearGradient id="paint12_linear_90_115" x1="124.226" y1="597.029" x2="86.7421" y2="600.033" gradientUnits="userSpaceOnUse">
<stop stop-color="#311944"/>
<stop offset="1" stop-color="#893976"/>
</linearGradient>
<linearGradient id="paint13_linear_90_115" x1="103.494" y1="604.079" x2="46.5891" y2="608.641" gradientUnits="userSpaceOnUse">
<stop stop-color="#311944"/>
<stop offset="1" stop-color="#893976"/>
</linearGradient>
<linearGradient id="paint14_linear_90_115" x1="148.441" y1="416.261" x2="106.341" y2="686.64" gradientUnits="userSpaceOnUse">
<stop stop-color="#AA80F9"/>
<stop offset="0.9964" stop-color="#6165D7"/>
</linearGradient>
<linearGradient id="paint15_linear_90_115" x1="58.9003" y1="713.042" x2="38.5378" y2="985.92" gradientUnits="userSpaceOnUse">
<stop stop-color="#AA80F9"/>
<stop offset="0.9964" stop-color="#6165D7"/>
</linearGradient>
<linearGradient id="paint16_linear_90_115" x1="-10.3296" y1="620" x2="102.054" y2="427.497" gradientUnits="userSpaceOnUse">
<stop stop-color="#AA80F9"/>
<stop offset="0.9964" stop-color="#6165D7"/>
</linearGradient>
<linearGradient id="paint17_linear_90_115" x1="29.5105" y1="486.899" x2="53.213" y2="518.918" gradientUnits="userSpaceOnUse">
<stop stop-color="#FFC444"/>
<stop offset="0.9964" stop-color="#F36F56"/>
</linearGradient>
<linearGradient id="paint18_linear_90_115" x1="9.15065" y1="709.33" x2="-11.2118" y2="982.208" gradientUnits="userSpaceOnUse">
<stop stop-color="#AA80F9"/>
<stop offset="0.9964" stop-color="#6165D7"/>
</linearGradient>
<linearGradient id="paint19_linear_90_115" x1="96.8197" y1="407.112" x2="74.0016" y2="378.721" gradientUnits="userSpaceOnUse">
<stop stop-color="#FFC444"/>
<stop offset="0.9964" stop-color="#F36F56"/>
</linearGradient>
<linearGradient id="paint20_linear_90_115" x1="79.4692" y1="396.684" x2="91.5631" y2="356.899" gradientUnits="userSpaceOnUse">
<stop stop-color="#444B8C"/>
<stop offset="0.9964" stop-color="#3E4177"/>
</linearGradient>
<linearGradient id="paint21_linear_90_115" x1="110.312" y1="382.801" x2="76.2949" y2="367.659" gradientUnits="userSpaceOnUse">
<stop stop-color="#FFC444"/>
<stop offset="0.9964" stop-color="#F36F56"/>
</linearGradient>
<linearGradient id="paint22_linear_90_115" x1="212.991" y1="349.802" x2="519.698" y2="349.802" gradientUnits="userSpaceOnUse">
<stop stop-color="#311944"/>
<stop offset="1" stop-color="#893976"/>
</linearGradient>
<linearGradient id="paint23_linear_90_115" x1="399.459" y1="953.04" x2="362.888" y2="319.573" gradientUnits="userSpaceOnUse">
<stop offset="0.003597" stop-color="#F36F56"/>
<stop offset="1" stop-color="#FFC444"/>
</linearGradient>
<linearGradient id="paint24_linear_90_115" x1="254.364" y1="316.448" x2="475.036" y2="316.448" gradientUnits="userSpaceOnUse">
<stop offset="0.003597" stop-color="#F36F56"/>
<stop offset="1" stop-color="#FFC444"/>
</linearGradient>
<linearGradient id="paint25_linear_90_115" x1="246.565" y1="374.342" x2="467.066" y2="374.342" gradientUnits="userSpaceOnUse">
<stop offset="0.003597" stop-color="#F36F56"/>
<stop offset="1" stop-color="#FFC444"/>
</linearGradient>
<linearGradient id="paint26_linear_90_115" x1="354.946" y1="395.719" x2="305.654" y2="708.302" gradientUnits="userSpaceOnUse">
<stop offset="0.003597" stop-color="#F36F56"/>
<stop offset="1" stop-color="#FFC444"/>
</linearGradient>
<linearGradient id="paint27_linear_90_115" x1="371.16" y1="70.2623" x2="381.687" y2="383.736" gradientUnits="userSpaceOnUse">
<stop offset="0.003597" stop-color="#F36F56"/>
<stop offset="1" stop-color="#FFC444"/>
</linearGradient>
</defs>
</svg>
