<svg width="135" height="22" viewBox="0 0 135 22" fill="none" xmlns="http://www.w3.org/2000/svg">
<path d="M0.890234 17V3H8.05024C9.89024 3 11.2636 3.34 12.1702 4.02C13.0769 4.68667 13.5302 5.56667 13.5302 6.66C13.5302 7.38 13.3369 8.01333 12.9502 8.56C12.5769 9.09333 12.0436 9.52 11.3502 9.84C10.6702 10.1467 9.8569 10.3 8.91023 10.3L9.31023 9.34C10.2969 9.34 11.1569 9.49333 11.8902 9.8C12.6236 10.0933 13.1902 10.5267 13.5902 11.1C14.0036 11.66 14.2102 12.3467 14.2102 13.16C14.2102 14.3733 13.7169 15.32 12.7302 16C11.7569 16.6667 10.3302 17 8.45023 17H0.890234ZM4.81023 14.14H8.13023C8.81023 14.14 9.32357 14.0267 9.67023 13.8C10.0302 13.56 10.2102 13.2 10.2102 12.72C10.2102 12.24 10.0302 11.8867 9.67023 11.66C9.32357 11.42 8.81023 11.3 8.13023 11.3H4.53023V8.56H7.53023C8.1969 8.56 8.6969 8.44667 9.03023 8.22C9.36357 7.99333 9.53024 7.65333 9.53024 7.2C9.53024 6.74667 9.36357 6.41333 9.03023 6.2C8.6969 5.97333 8.1969 5.86 7.53023 5.86H4.81023V14.14ZM21.7613 17.18C20.4813 17.18 19.3613 16.94 18.4013 16.46C17.4547 15.9667 16.7147 15.3 16.1813 14.46C15.6613 13.6067 15.4013 12.64 15.4013 11.56C15.4013 10.48 15.6547 9.52 16.1613 8.68C16.6813 7.82667 17.3947 7.16667 18.3013 6.7C19.208 6.22 20.228 5.98 21.3613 5.98C22.428 5.98 23.4013 6.2 24.2813 6.64C25.1613 7.06667 25.8613 7.7 26.3813 8.54C26.9013 9.38 27.1613 10.4 27.1613 11.6C27.1613 11.7333 27.1547 11.8867 27.1413 12.06C27.128 12.2333 27.1147 12.3933 27.1013 12.54H18.5213V10.54H25.0813L23.6413 11.1C23.6547 10.6067 23.5613 10.18 23.3613 9.82C23.1747 9.46 22.908 9.18 22.5613 8.98C22.228 8.78 21.8347 8.68 21.3813 8.68C20.928 8.68 20.528 8.78 20.1813 8.98C19.848 9.18 19.588 9.46667 19.4013 9.84C19.2147 10.2 19.1213 10.6267 19.1213 11.12V11.7C19.1213 12.2333 19.228 12.6933 19.4413 13.08C19.668 13.4667 19.988 13.7667 20.4013 13.98C20.8147 14.18 21.308 14.28 21.8813 14.28C22.4147 14.28 22.868 14.2067 23.2413 14.06C23.628 13.9 24.008 13.66 24.3813 13.34L26.3813 15.42C25.8613 15.9933 25.2213 16.4333 24.4613 16.74C23.7013 17.0333 22.8013 17.18 21.7613 17.18ZM35.2404 17V14.98L34.9804 14.48V10.76C34.9804 10.16 34.7937 9.7 34.4204 9.38C34.0604 9.04667 33.4804 8.88 32.6804 8.88C32.1604 8.88 31.6337 8.96667 31.1004 9.14C30.5671 9.3 30.1137 9.52667 29.7404 9.82L28.4604 7.24C29.0737 6.84 29.8071 6.53333 30.6604 6.32C31.5271 6.09333 32.3871 5.98 33.2404 5.98C35.0004 5.98 36.3604 6.38667 37.3204 7.2C38.2937 8 38.7804 9.26 38.7804 10.98V17H35.2404ZM32.0404 17.18C31.1737 17.18 30.4404 17.0333 29.8404 16.74C29.2404 16.4467 28.7804 16.0467 28.4604 15.54C28.1537 15.0333 28.0004 14.4667 28.0004 13.84C28.0004 13.1733 28.1671 12.6 28.5004 12.12C28.8471 11.6267 29.3737 11.2533 30.0804 11C30.7871 10.7333 31.7004 10.6 32.8204 10.6H35.3804V12.58H33.3404C32.7271 12.58 32.2937 12.68 32.0404 12.88C31.8004 13.08 31.6804 13.3467 31.6804 13.68C31.6804 14.0133 31.8071 14.28 32.0604 14.48C32.3137 14.68 32.6604 14.78 33.1004 14.78C33.5137 14.78 33.8871 14.68 34.2204 14.48C34.5671 14.2667 34.8204 13.9467 34.9804 13.52L35.5004 14.92C35.3004 15.6667 34.9071 16.2333 34.3204 16.62C33.7471 16.9933 32.9871 17.18 32.0404 17.18ZM45.739 17.18C44.859 17.18 44.0657 17.0067 43.359 16.66C42.6657 16.3133 42.119 15.7733 41.719 15.04C41.3323 14.2933 41.139 13.3533 41.139 12.22V6.16H44.939V11.6C44.939 12.44 45.0923 13.04 45.399 13.4C45.719 13.76 46.1657 13.94 46.739 13.94C47.1123 13.94 47.4523 13.8533 47.759 13.68C48.0657 13.5067 48.3123 13.2333 48.499 12.86C48.6857 12.4733 48.779 11.98 48.779 11.38V6.16H52.579V17H48.959V13.94L49.659 14.8C49.2857 15.6 48.7457 16.2 48.039 16.6C47.3323 16.9867 46.5657 17.18 45.739 17.18ZM59.8666 17.18C58.48 17.18 57.4 16.84 56.6266 16.16C55.8533 15.4667 55.4666 14.4267 55.4666 13.04V3.74H59.2666V13C59.2666 13.3867 59.3733 13.6933 59.5866 13.92C59.8 14.1333 60.0733 14.24 60.4066 14.24C60.86 14.24 61.2466 14.1267 61.5666 13.9L62.5066 16.56C62.1866 16.7733 61.7933 16.9267 61.3266 17.02C60.86 17.1267 60.3733 17.18 59.8666 17.18ZM53.8866 9.4V6.56H61.7466V9.4H53.8866ZM65.6366 21.06C65.0633 21.06 64.4833 20.9667 63.8966 20.78C63.3233 20.6067 62.8566 20.3733 62.4966 20.08L63.8166 17.42C64.0433 17.62 64.3033 17.7733 64.5966 17.88C64.9033 18 65.2033 18.06 65.4966 18.06C65.91 18.06 66.2366 17.9667 66.4766 17.78C66.7166 17.5933 66.9233 17.3 67.0966 16.9L67.5966 15.64L67.8966 15.26L71.5766 6.16H75.1966L70.5166 17.44C70.1433 18.3733 69.71 19.1 69.2166 19.62C68.7366 20.1533 68.1966 20.5267 67.5966 20.74C67.01 20.9533 66.3566 21.06 65.6366 21.06ZM67.1166 17.46L62.3366 6.16H66.2366L69.7566 14.92L67.1166 17.46Z" fill="#FC5D89"/>
<path d="M83.339 17.28C82.2323 17.28 81.2057 17.1067 80.259 16.76C79.3257 16.4 78.5123 15.8933 77.819 15.24C77.139 14.5867 76.6057 13.82 76.219 12.94C75.8323 12.0467 75.639 11.0667 75.639 10C75.639 8.93333 75.8323 7.96 76.219 7.08C76.6057 6.18667 77.139 5.41333 77.819 4.76C78.5123 4.10667 79.3257 3.60667 80.259 3.26C81.2057 2.9 82.2323 2.72 83.339 2.72C84.6323 2.72 85.7857 2.94667 86.799 3.4C87.8257 3.85333 88.679 4.50667 89.359 5.36L86.839 7.64C86.3857 7.10667 85.8857 6.7 85.339 6.42C84.8057 6.14 84.2057 6 83.539 6C82.9657 6 82.439 6.09333 81.959 6.28C81.479 6.46667 81.0657 6.74 80.719 7.1C80.3857 7.44667 80.119 7.86667 79.919 8.36C79.7323 8.85333 79.639 9.4 79.639 10C79.639 10.6 79.7323 11.1467 79.919 11.64C80.119 12.1333 80.3857 12.56 80.719 12.92C81.0657 13.2667 81.479 13.5333 81.959 13.72C82.439 13.9067 82.9657 14 83.539 14C84.2057 14 84.8057 13.86 85.339 13.58C85.8857 13.3 86.3857 12.8933 86.839 12.36L89.359 14.64C88.679 15.48 87.8257 16.1333 86.799 16.6C85.7857 17.0533 84.6323 17.28 83.339 17.28ZM90.9446 17V2.16H94.7446V17H90.9446ZM97.2141 17V6.16H101.014V17H97.2141ZM99.1141 4.96C98.4208 4.96 97.8608 4.76667 97.4341 4.38C97.0075 3.99333 96.7941 3.51333 96.7941 2.94C96.7941 2.36667 97.0075 1.88667 97.4341 1.5C97.8608 1.11333 98.4208 0.92 99.1141 0.92C99.8075 0.92 100.367 1.10667 100.794 1.48C101.221 1.84 101.434 2.30667 101.434 2.88C101.434 3.48 101.221 3.98 100.794 4.38C100.381 4.76667 99.8208 4.96 99.1141 4.96ZM110.544 5.98C111.384 5.98 112.144 6.15333 112.824 6.5C113.504 6.83333 114.037 7.35333 114.424 8.06C114.824 8.76667 115.024 9.68 115.024 10.8V17H111.224V11.42C111.224 10.6467 111.064 10.0867 110.744 9.74C110.437 9.38 110.004 9.2 109.444 9.2C109.044 9.2 108.677 9.29333 108.344 9.48C108.01 9.65333 107.75 9.92667 107.564 10.3C107.377 10.6733 107.284 11.16 107.284 11.76V17H103.484V6.16H107.104V9.24L106.404 8.34C106.817 7.55333 107.384 6.96667 108.104 6.58C108.824 6.18 109.637 5.98 110.544 5.98ZM117.409 17V6.16H121.209V17H117.409ZM119.309 4.96C118.616 4.96 118.056 4.76667 117.629 4.38C117.203 3.99333 116.989 3.51333 116.989 2.94C116.989 2.36667 117.203 1.88667 117.629 1.5C118.056 1.11333 118.616 0.92 119.309 0.92C120.003 0.92 120.563 1.10667 120.989 1.48C121.416 1.84 121.629 2.30667 121.629 2.88C121.629 3.48 121.416 3.98 120.989 4.38C120.576 4.76667 120.016 4.96 119.309 4.96ZM129.219 17.18C128.019 17.18 126.946 16.94 125.999 16.46C125.066 15.98 124.332 15.32 123.799 14.48C123.266 13.6267 122.999 12.6533 122.999 11.56C122.999 10.4667 123.266 9.5 123.799 8.66C124.332 7.82 125.066 7.16667 125.999 6.7C126.946 6.22 128.019 5.98 129.219 5.98C130.446 5.98 131.506 6.24 132.399 6.76C133.292 7.28 133.926 8.01333 134.299 8.96L131.359 10.46C131.106 9.95333 130.792 9.58667 130.419 9.36C130.046 9.12 129.639 9 129.199 9C128.759 9 128.359 9.1 127.999 9.3C127.639 9.5 127.352 9.79333 127.139 10.18C126.939 10.5533 126.839 11.0133 126.839 11.56C126.839 12.12 126.939 12.5933 127.139 12.98C127.352 13.3667 127.639 13.66 127.999 13.86C128.359 14.06 128.759 14.16 129.199 14.16C129.639 14.16 130.046 14.0467 130.419 13.82C130.792 13.58 131.106 13.2067 131.359 12.7L134.299 14.2C133.926 15.1467 133.292 15.88 132.399 16.4C131.506 16.92 130.446 17.18 129.219 17.18Z" fill="black"/>
</svg>
