<svg width="17" height="17" viewBox="0 0 17 17" fill="none" xmlns="http://www.w3.org/2000/svg">
<path d="M14.6162 15.8192L11.1776 12.3806C10.637 12.8492 10.0062 13.2141 9.28533 13.4755C8.56446 13.7368 7.79854 13.8674 6.98757 13.8674C5.04123 13.8674 3.39225 13.1916 2.04062 11.84C0.688996 10.4884 0.0131836 8.85741 0.0131836 6.94711C0.0131836 5.03682 0.688996 3.40586 2.04062 2.05423C3.39225 0.702607 5.03222 0.0267944 6.96054 0.0267944C8.87083 0.0267944 10.4973 0.702607 11.8399 2.05423C13.1825 3.40586 13.8538 5.03682 13.8538 6.94711C13.8538 7.72204 13.7277 8.46994 13.4754 9.19081C13.2231 9.91168 12.8446 10.5875 12.34 11.2182L15.8327 14.6569C15.9949 14.801 16.076 14.9857 16.076 15.211C16.076 15.4363 15.9859 15.639 15.8056 15.8192C15.6434 15.9814 15.4452 16.0625 15.2109 16.0625C14.9766 16.0625 14.7784 15.9814 14.6162 15.8192ZM6.96054 12.2455C8.42029 12.2455 9.66378 11.7274 10.691 10.6911C11.7183 9.65487 12.2319 8.40687 12.2319 6.94711C12.2319 5.48736 11.7183 4.23936 10.691 3.20311C9.66378 2.16687 8.42029 1.64874 6.96054 1.64874C5.48276 1.64874 4.22575 2.16687 3.1895 3.20311C2.15326 4.23936 1.63513 5.48736 1.63513 6.94711C1.63513 8.40687 2.15326 9.65487 3.1895 10.6911C4.22575 11.7274 5.48276 12.2455 6.96054 12.2455Z" fill="#5E5E5E"/>
</svg>
